<svg width="26" height="30" viewBox="0 0 26 30" fill="none" xmlns="http://www.w3.org/2000/svg">
<g clip-path="url(#clip0_1_4730)">
<path d="M14.1938 2.68359C14.1938 2.277 14.2071 1.88505 14.1938 1.49423C14.1594 0.722719 13.6748 0.215895 12.9961 0.218147C12.3174 0.2204 11.8394 0.726106 11.8051 1.50212C11.7884 1.87492 11.8051 2.24997 11.8051 2.6757L11.0609 2.8638C7.30815 3.81439 4.76193 7.09414 4.70759 11.0564C4.69317 12.0509 4.6843 13.0454 4.70759 14.04C4.76858 16.6147 3.84925 18.7478 1.97619 20.479C1.089 21.2978 0.913767 22.3531 1.486 23.253C1.92183 23.9367 2.55174 24.2441 3.35908 24.2385C5.50274 24.2261 7.64639 24.2385 9.79116 24.2385C14.0585 24.2385 18.3266 24.2385 22.5954 24.2385C23.8308 24.2385 24.6437 23.5627 24.8134 22.4117C24.9243 21.6233 24.6038 20.9925 24.0271 20.4756C22.7462 19.3245 21.8602 17.9178 21.5131 16.2114C21.3656 15.4839 21.3456 14.727 21.3079 13.9814C21.2291 12.4485 21.3312 10.8875 21.0861 9.38501C20.5405 6.06584 17.9056 3.46411 14.6707 2.80861C14.5265 2.7737 14.3823 2.7309 14.1938 2.68359Z" fill="#0052CC"/>
<path d="M-0.00113344 11.3955C-0.00113344 11.6602 -0.00667858 11.8674 -0.00113344 12.0713C0.0232639 12.7989 0.501247 13.2877 1.17661 13.2821C1.85198 13.2764 2.33436 12.7707 2.34324 12.0499C2.35256 10.5314 2.62704 9.02667 3.1539 7.60557C3.74801 6.00557 4.66261 4.5482 5.83985 3.32567C6.17254 2.97652 6.42539 2.59246 6.31227 2.07549C6.27039 1.8578 6.16947 1.65631 6.02087 1.49376C5.87227 1.33121 5.68191 1.21405 5.47125 1.1555C5.2606 1.09695 5.03803 1.09934 4.82864 1.16239C4.61924 1.22544 4.43136 1.34665 4.28617 1.51235C3.62129 2.21233 3.01308 2.96563 2.46745 3.76493C0.951281 6.02051 0.095366 8.66621 -0.00113344 11.3955Z" fill="#0052CC"/>
<path d="M26 11.2987C25.8048 7.62586 24.4142 4.35061 21.8192 1.60584C21.2547 1.00891 20.5738 0.953717 20.057 1.43239C19.5147 1.93584 19.5114 2.63865 20.1036 3.26374C21.9223 5.17843 23.0645 7.44002 23.4837 10.0654C23.573 10.6766 23.6263 11.2926 23.6434 11.9103C23.68 12.7629 24.1236 13.2911 24.8467 13.2832C25.5697 13.2753 26.0011 12.7595 26 11.8776C25.9989 11.7278 26 11.578 26 11.2987Z" fill="#0052CC"/>
<path d="M17.3134 25.4752H8.70548C8.96387 27.373 10.8292 28.996 12.7887 29.0512C14.9989 29.1143 16.872 27.6546 17.3134 25.4752Z" fill="#0052CC"/>
</g>
<defs>
<clipPath id="clip0_1_4730">
<rect width="26" height="28.8364" fill="white" transform="matrix(-1 0 0 1 26 0.21814)"/>
</clipPath>
</defs>
</svg>
