<svg width="41" height="41" viewBox="0 0 41 41" fill="none" xmlns="http://www.w3.org/2000/svg">
<g clip-path="url(#clip0_1_6267)">
<path d="M31.2674 11.2176C29.3648 9.15465 26.8931 7.70222 24.165 7.04399C21.4369 6.38576 18.5749 6.55129 15.9408 7.51965C13.3068 8.48801 11.0191 10.2157 9.36693 12.4843C7.7148 14.7528 6.77248 17.4603 6.65912 20.2644C6.54577 23.0685 7.26648 25.8433 8.7301 28.2378C10.1937 30.6323 12.3345 32.539 14.8818 33.7168C17.4291 34.8946 20.2684 35.2906 23.0408 34.8548C25.8131 34.4189 28.3939 33.1707 30.4569 31.2681C33.2196 28.7145 34.8564 25.1694 35.0084 21.4104C35.1604 17.6515 33.815 13.9858 31.2674 11.2176ZM23.1744 25.1161L20.7694 22.5084L18.1618 24.9134C17.9312 25.126 17.6257 25.2384 17.3123 25.2257C16.999 25.213 16.7035 25.0764 16.4909 24.8459C16.2783 24.6154 16.166 24.3098 16.1786 23.9965C16.1913 23.6831 16.3279 23.3876 16.5584 23.175L19.1661 20.77L16.7611 18.1624C16.5485 17.9319 16.4361 17.6263 16.4488 17.313C16.4615 16.9996 16.5981 16.7041 16.8286 16.4915C17.0591 16.2789 17.3647 16.1666 17.678 16.1793C17.9914 16.1919 18.2869 16.3285 18.4995 16.5591L20.9045 19.1667L23.5121 16.7617C23.7426 16.5491 24.0482 16.4368 24.3615 16.4494C24.6749 16.4621 24.9704 16.5987 25.183 16.8293C25.3956 17.0598 25.5079 17.3653 25.4953 17.6787C25.4826 17.992 25.346 18.2875 25.1154 18.5001L22.5078 20.9051L24.9128 23.5127C25.1254 23.7433 25.2377 24.0488 25.2251 24.3622C25.2124 24.6755 25.0758 24.971 24.8453 25.1836C24.6147 25.3962 24.3092 25.5086 23.9958 25.4959C23.6825 25.4832 23.387 25.3466 23.1744 25.1161Z" fill="#393939"/>
</g>
<defs>
<clipPath id="clip0_1_6267">
<rect width="28.3788" height="28.3788" fill="white" transform="translate(21.6475 0.787109) rotate(47.3149)"/>
</clipPath>
</defs>
</svg>
