<svg width="24" height="19" viewBox="0 0 24 19" fill="none" xmlns="http://www.w3.org/2000/svg">
<path d="M11.6335 13.5099C13.7744 13.5099 15.5099 11.7743 15.5099 9.63347C15.5099 7.4926 13.7744 5.75708 11.6335 5.75708C9.49266 5.75708 7.75714 7.4926 7.75714 9.63347C7.75714 11.7743 9.49266 13.5099 11.6335 13.5099Z" fill="#2684FF"/>
<path d="M22.5563 7.13229C21.0532 4.68434 17.6342 0.577271 11.6335 0.577271C5.63284 0.577271 2.21384 4.68434 0.710768 7.13229C-0.236923 8.66512 -0.236923 10.6019 0.710768 12.1348C2.21384 14.5828 5.63284 18.6898 11.6335 18.6898C17.6342 18.6898 21.0532 14.5828 22.5563 12.1348C23.504 10.6019 23.504 8.66512 22.5563 7.13229ZM11.6335 15.4481C8.42221 15.4481 5.8189 12.8448 5.8189 9.63353C5.8189 6.42223 8.42221 3.81892 11.6335 3.81892C14.8448 3.81892 17.4481 6.42223 17.4481 9.63353C17.4449 12.8435 14.8435 15.4449 11.6335 15.4481Z" fill="#2684FF"/>
</svg>
