<svg width="157" height="122" viewBox="0 0 157 122" fill="none" xmlns="http://www.w3.org/2000/svg">
<g clip-path="url(#clip0_1_4568)">
<path d="M40.957 13.8444C40.957 13.8444 71.9202 -17.2799 106.37 13.8118C106.37 13.8118 99.7734 24.6842 76.6053 27.0146L73.9152 13.8118L71.3808 26.5797C71.3808 26.5797 56.2359 28.033 40.957 13.8444Z" fill="white"/>
<path d="M106.37 83.1308C106.37 83.1308 75.4032 114.255 40.957 83.1634C40.957 83.1634 47.5501 72.2909 70.7182 69.9606L73.4083 83.1634L75.9246 70.3955C75.9246 70.3955 91.0876 68.9458 106.37 83.1308Z" fill="white"/>
<path d="M108.851 16.0114C108.851 16.0114 139.944 47.0088 108.879 81.489C108.879 81.489 98.0177 74.8894 95.6897 51.6984L108.879 49.0057L96.1242 46.4869C96.1242 46.4869 94.6759 31.3089 108.851 16.0114Z" fill="white"/>
<path d="M39.3135 16.0114C39.3135 16.0114 8.21999 47.0088 39.2846 81.4999C39.2846 81.4999 50.1463 74.9003 52.4744 51.7093L39.2846 49.0166L52.0399 46.4978C52.0399 46.4978 53.4881 31.3089 39.3135 16.0114Z" fill="white"/>
<path d="M73.6475 30.4283C73.6475 30.4283 75.0486 47.0197 57.3875 48.9369C57.3875 48.9369 72.2318 49.7052 73.6475 65.5283C73.6475 65.5283 73.9516 50.9483 90.5556 49.042C90.5556 49.042 74.4585 49.0275 73.6475 30.4283Z" fill="white"/>
<path d="M0.0737305 118.988L1.28662 118.264C2.13625 119.834 3.11985 120.619 4.2374 120.619C4.70692 120.621 5.16955 120.506 5.58426 120.286C5.98215 120.082 6.3147 119.771 6.54371 119.387C6.7602 119.027 6.87414 118.615 6.87318 118.195C6.8624 117.688 6.69268 117.197 6.38803 116.792C5.68958 115.914 4.86758 115.143 3.94775 114.502C2.7602 113.606 2.0216 112.954 1.73195 112.555C1.24669 111.934 0.98061 111.17 0.975252 110.381C0.968772 109.786 1.12261 109.2 1.42059 108.685C1.71869 108.173 2.15387 107.755 2.67693 107.478C3.21538 107.184 3.81981 107.034 4.4329 107.039C5.09328 107.036 5.7429 107.207 6.31561 107.536C7.05227 108.016 7.68311 108.641 8.16935 109.373L7.00714 110.254C6.63756 109.709 6.17416 109.234 5.63856 108.852C5.2667 108.625 4.83913 108.507 4.40394 108.511C4.14643 108.501 3.88947 108.542 3.64778 108.631C3.4061 108.721 3.18445 108.857 2.99553 109.033C2.81875 109.197 2.67866 109.397 2.58445 109.619C2.49023 109.842 2.44402 110.082 2.44883 110.323C2.44922 110.634 2.51458 110.941 2.64072 111.225C2.81909 111.581 3.05801 111.902 3.34673 112.175C3.535 112.356 4.14929 112.831 5.1896 113.599C6.4206 114.508 7.2654 115.318 7.72401 116.031C8.1572 116.662 8.39634 117.407 8.41193 118.173C8.41445 118.677 8.31174 119.177 8.11036 119.639C7.90899 120.102 7.61339 120.517 7.24248 120.858C6.86624 121.231 6.41924 121.523 5.92794 121.719C5.43664 121.915 4.91103 122.011 4.38222 122C3.54624 122.01 2.72645 121.769 2.02884 121.308C1.20031 120.703 0.529644 119.908 0.0737305 118.988Z" fill="white"/>
<path d="M10.6204 107.384H13.4589C14.5603 107.344 15.663 107.416 16.75 107.598C17.5321 107.78 18.2329 108.214 18.7449 108.833C19.2762 109.499 19.5511 110.334 19.5198 111.185C19.5525 112.033 19.2845 112.865 18.7631 113.534C18.229 114.172 17.4955 114.611 16.6812 114.781C15.485 114.978 14.2722 115.055 13.0606 115.013H12.0433V121.645H10.6204V107.384ZM12.0433 108.783V113.617L14.4546 113.646C15.1777 113.682 15.9015 113.592 16.5943 113.382C17.0328 113.217 17.4061 112.914 17.6588 112.519C17.9178 112.124 18.0527 111.661 18.0462 111.189C18.051 110.724 17.916 110.268 17.6588 109.881C17.4211 109.503 17.07 109.21 16.6559 109.044C15.9836 108.843 15.282 108.758 14.5813 108.793L12.0433 108.783Z" fill="white"/>
<path d="M24.5851 107.384L31.2252 121.645H29.6901L27.449 116.952H21.3121L19.0927 121.645H17.5068L24.2339 107.384H24.5851ZM24.404 110.414L21.9638 115.567H26.8334L24.404 110.414Z" fill="white"/>
<path d="M32.5864 107.384H35.425C36.5004 107.347 37.5769 107.413 38.64 107.579C39.4472 107.751 40.1729 108.19 40.7002 108.826C41.2395 109.49 41.5222 110.326 41.4967 111.182C41.5113 111.902 41.3204 112.611 40.9463 113.226C40.5769 113.822 40.0317 114.29 39.3859 114.563C38.4869 114.903 37.5292 115.059 36.5691 115.023L41.6922 121.645H39.929L34.8058 115.023H34.0021V121.645H32.5864V107.384ZM34.0093 108.782V113.628L36.4641 113.646C37.1781 113.68 37.8926 113.588 38.5749 113.374C39.0138 113.208 39.3873 112.904 39.6393 112.508C39.8957 112.111 40.0292 111.647 40.0231 111.174C40.0268 110.711 39.8919 110.256 39.6357 109.87C39.3899 109.493 39.0348 109.201 38.6183 109.033C37.9388 108.831 37.2299 108.746 36.522 108.782H34.0093Z" fill="white"/>
<path d="M43.7126 107.384H45.1609V112.737L50.856 107.384H52.7677L45.9284 113.784L53.2999 121.645H51.4136L45.1681 115.002V121.645H43.7199L43.7126 107.384Z" fill="white"/>
<path d="M74.2233 110.033L73.1009 110.895C72.5132 110.113 71.7473 109.484 70.867 109.058C69.9735 108.635 68.9954 108.42 68.0068 108.431C66.9011 108.424 65.8129 108.707 64.8496 109.25C63.9144 109.767 63.1363 110.527 62.5976 111.45C62.0592 112.397 61.7841 113.47 61.8011 114.559C61.7806 115.369 61.9287 116.173 62.236 116.922C62.5433 117.671 63.0031 118.347 63.5861 118.908C64.1824 119.484 64.888 119.933 65.661 120.231C66.434 120.528 67.2587 120.668 68.0864 120.641C69.0441 120.654 69.9922 120.449 70.8595 120.042C71.7268 119.635 72.4907 119.037 73.0937 118.292L74.2161 119.148C73.5097 120.049 72.5986 120.768 71.5586 121.246C70.4397 121.746 69.2246 121.993 67.9995 121.971C65.5086 121.971 63.5426 121.141 62.1016 119.481C60.8932 118.071 60.2484 116.264 60.2913 114.407C60.2706 113.424 60.455 112.448 60.8328 111.541C61.2106 110.633 61.7735 109.815 62.4854 109.138C63.2121 108.432 64.073 107.879 65.0171 107.512C65.9612 107.146 66.9692 106.972 67.9814 107.003C69.2329 106.981 70.4723 107.25 71.602 107.79C72.6493 108.306 73.5505 109.078 74.2233 110.033Z" fill="white"/>
<path d="M82.7206 107.028C83.7261 107.001 84.7266 107.18 85.6605 107.554C86.5945 107.928 87.4421 108.489 88.1515 109.203C88.86 109.892 89.4186 110.721 89.7924 111.636C90.1663 112.552 90.3472 113.534 90.3239 114.523C90.3423 115.51 90.1591 116.491 89.7856 117.404C89.412 118.318 88.856 119.145 88.1515 119.836C87.4623 120.543 86.6356 121.1 85.7227 121.474C84.8098 121.848 83.83 122.031 82.8437 122.011C81.8514 122.032 80.8652 121.85 79.9456 121.476C79.026 121.102 78.1925 120.544 77.4961 119.836C76.794 119.157 76.2388 118.34 75.8651 117.436C75.4914 116.533 75.3072 115.562 75.3238 114.585C75.3151 113.25 75.6572 111.936 76.3158 110.776C76.9539 109.632 77.8899 108.683 79.024 108.029C80.145 107.371 81.4213 107.026 82.7206 107.028ZM82.7858 108.413C81.731 108.414 80.6958 108.698 79.788 109.236C78.8652 109.765 78.1013 110.532 77.5758 111.457C77.0422 112.408 76.7687 113.483 76.7829 114.574C76.7665 115.372 76.9142 116.164 77.2169 116.903C77.5196 117.641 77.9708 118.309 78.5425 118.865C79.0934 119.431 79.7539 119.878 80.4836 120.179C81.2133 120.48 81.9967 120.628 82.7858 120.615C83.8611 120.623 84.9192 120.346 85.8524 119.811C86.7747 119.292 87.5372 118.53 88.0574 117.607C88.5872 116.66 88.8594 115.591 88.8467 114.505C88.8607 113.43 88.5882 112.37 88.0574 111.435C87.5254 110.516 86.7564 109.756 85.8307 109.236C84.9061 108.697 83.8555 108.413 82.7858 108.413Z" fill="white"/>
<path d="M91.095 121.645L93.1334 107.384H93.3651L99.158 119.083L104.893 107.384H105.121L107.17 121.645H105.776L104.368 111.446L99.3318 121.645H98.9697L93.872 111.37L92.4744 121.645H91.095Z" fill="white"/>
<path d="M108.568 107.384H111.406C112.508 107.344 113.61 107.416 114.698 107.598C115.48 107.78 116.18 108.214 116.692 108.833C117.222 109.5 117.497 110.334 117.467 111.185C117.5 112.033 117.232 112.865 116.711 113.534C116.176 114.171 115.443 114.61 114.629 114.781C113.432 114.977 112.22 115.055 111.008 115.013H109.991V121.645H108.568V107.384ZM109.991 108.783V113.617L112.402 113.646C113.125 113.682 113.849 113.592 114.542 113.382C114.98 113.217 115.354 112.914 115.606 112.519C115.864 112.124 115.998 111.661 115.994 111.189C115.997 110.724 115.862 110.269 115.606 109.881C115.366 109.496 115.008 109.198 114.585 109.033C113.912 108.832 113.209 108.747 112.507 108.783H109.991Z" fill="white"/>
<path d="M122.956 107.384L129.618 121.645H128.061L125.82 116.952H119.665L117.446 121.645H115.86L122.591 107.384H122.956ZM122.775 110.414L120.335 115.567H125.205L122.775 110.414Z" fill="white"/>
<path d="M130.136 118.988L131.349 118.263C132.198 119.834 133.182 120.619 134.299 120.619C134.769 120.62 135.232 120.506 135.646 120.286C136.044 120.082 136.377 119.771 136.606 119.387C136.821 119.026 136.934 118.614 136.935 118.194C136.924 117.688 136.755 117.197 136.45 116.792C135.751 115.915 134.929 115.144 134.01 114.501C132.822 113.606 132.084 112.954 131.794 112.555C131.309 111.934 131.043 111.169 131.037 110.381C131.03 109.784 131.184 109.197 131.483 108.681C131.78 108.17 132.214 107.752 132.735 107.474C133.275 107.181 133.881 107.03 134.495 107.036C135.155 107.032 135.805 107.203 136.378 107.532C137.114 108.013 137.744 108.638 138.231 109.37L137.069 110.25C136.7 109.705 136.236 109.23 135.701 108.848C135.329 108.621 134.901 108.503 134.466 108.507C134.208 108.497 133.951 108.537 133.71 108.627C133.468 108.717 133.246 108.853 133.058 109.029C132.882 109.193 132.743 109.392 132.65 109.613C132.556 109.834 132.51 110.072 132.514 110.312C132.513 110.623 132.579 110.931 132.706 111.214C132.89 111.571 133.135 111.892 133.43 112.164C133.619 112.345 134.232 112.82 135.27 113.588C136.503 114.497 137.348 115.307 137.804 116.02C138.237 116.651 138.476 117.396 138.492 118.162C138.495 118.669 138.392 119.17 138.189 119.635C137.987 120.099 137.689 120.516 137.315 120.858C136.939 121.23 136.492 121.523 136.001 121.719C135.509 121.915 134.984 122.01 134.455 122C133.619 122.01 132.799 121.769 132.102 121.308C131.268 120.705 130.594 119.909 130.136 118.988Z" fill="white"/>
<path d="M139.22 118.988L140.429 118.263C141.283 119.834 142.268 120.619 143.383 120.619C143.853 120.62 144.316 120.506 144.73 120.286C145.128 120.082 145.461 119.771 145.69 119.387C145.905 119.026 146.018 118.614 146.019 118.194C146.013 117.688 145.849 117.196 145.549 116.788C144.849 115.912 144.027 115.14 143.108 114.498C142.295 113.938 141.55 113.285 140.889 112.552C140.405 111.93 140.14 111.165 140.136 110.377C140.125 109.783 140.274 109.198 140.567 108.681C140.863 108.17 141.297 107.751 141.819 107.474C142.359 107.181 142.965 107.03 143.579 107.036C144.239 107.032 144.889 107.203 145.462 107.532C146.197 108.013 146.828 108.638 147.315 109.37L146.153 110.25C145.784 109.705 145.32 109.23 144.785 108.848C144.412 108.622 143.985 108.504 143.55 108.507C143.292 108.497 143.034 108.538 142.792 108.627C142.55 108.717 142.327 108.853 142.138 109.029C141.962 109.194 141.822 109.394 141.728 109.616C141.634 109.838 141.587 110.078 141.591 110.319C141.591 110.631 141.658 110.938 141.787 111.222C141.971 111.578 142.216 111.9 142.511 112.171C142.699 112.352 143.312 112.827 144.35 113.595C145.327 114.256 146.184 115.078 146.884 116.027C147.318 116.659 147.557 117.403 147.572 118.169C147.576 118.676 147.472 119.178 147.27 119.642C147.067 120.107 146.769 120.523 146.396 120.865C146.019 121.237 145.572 121.53 145.081 121.726C144.59 121.922 144.064 122.018 143.535 122.007C142.699 122.017 141.88 121.776 141.182 121.315C140.348 120.711 139.674 119.912 139.22 118.988Z" fill="white"/>
<path d="M152.678 111.254C151.777 111.253 150.914 110.895 150.277 110.258C149.641 109.62 149.282 108.756 149.281 107.855C149.282 106.953 149.64 106.089 150.277 105.451C150.914 104.813 151.777 104.454 152.678 104.452C153.578 104.454 154.442 104.813 155.078 105.451C155.715 106.089 156.073 106.953 156.074 107.855C156.073 108.756 155.715 109.62 155.078 110.258C154.441 110.895 153.578 111.253 152.678 111.254ZM152.678 104.814C151.873 104.815 151.101 105.136 150.532 105.706C149.963 106.276 149.644 107.049 149.644 107.855C149.645 108.66 149.964 109.432 150.533 110.001C151.102 110.571 151.873 110.891 152.678 110.892C153.482 110.891 154.253 110.571 154.822 110.001C155.391 109.432 155.711 108.66 155.712 107.855C155.712 107.049 155.392 106.276 154.823 105.706C154.254 105.136 153.483 104.815 152.678 104.814Z" fill="white"/>
<path d="M151.606 105.858H152.391C152.688 105.849 152.985 105.866 153.278 105.909C153.501 105.957 153.701 106.078 153.847 106.253C153.995 106.437 154.074 106.669 154.068 106.905C154.072 107.104 154.019 107.301 153.916 107.471C153.811 107.631 153.661 107.757 153.485 107.833C153.238 107.928 152.974 107.971 152.71 107.96L154.122 109.772H153.637L152.221 107.96H152V109.772H151.606V105.858ZM152 106.242V107.594H152.677C152.875 107.603 153.072 107.578 153.26 107.518C153.381 107.472 153.484 107.388 153.554 107.279C153.624 107.171 153.66 107.045 153.659 106.916C153.66 106.788 153.623 106.662 153.554 106.554C153.486 106.449 153.387 106.368 153.271 106.322C153.084 106.265 152.888 106.242 152.692 106.253L152 106.242Z" fill="white"/>
</g>
<defs>
<clipPath id="clip0_1_4568">
<rect width="156" height="122" fill="white" transform="translate(0.0737305)"/>
</clipPath>
</defs>
</svg>
