<svg width="21" height="22" viewBox="0 0 21 22" fill="none" xmlns="http://www.w3.org/2000/svg">
<path d="M10.5 0.632812C8.4233 0.632813 6.39323 1.24863 4.66652 2.40238C2.9398 3.55614 1.59399 5.19601 0.79927 7.11464C0.0045495 9.03326 -0.203386 11.1445 0.201759 13.1813C0.606904 15.2181 1.60693 17.089 3.07538 18.5574C4.54383 20.0259 6.41476 21.0259 8.45156 21.4311C10.4884 21.8362 12.5996 21.6283 14.5182 20.8335C16.4368 20.0388 18.0767 18.693 19.2304 16.9663C20.3842 15.2396 21 13.2095 21 11.1328C20.997 8.34896 19.8898 5.68 17.9213 3.71152C15.9528 1.74304 13.2839 0.635823 10.5 0.632812ZM14 12.0078H11.375V14.6328C11.375 14.8649 11.2828 15.0874 11.1187 15.2515C10.9546 15.4156 10.7321 15.5078 10.5 15.5078C10.2679 15.5078 10.0454 15.4156 9.88129 15.2515C9.71719 15.0874 9.625 14.8649 9.625 14.6328V12.0078H7C6.76794 12.0078 6.54538 11.9156 6.38129 11.7515C6.21719 11.5874 6.125 11.3649 6.125 11.1328C6.125 10.9007 6.21719 10.6782 6.38129 10.5141C6.54538 10.35 6.76794 10.2578 7 10.2578H9.625V7.63281C9.625 7.40075 9.71719 7.17819 9.88129 7.01409C10.0454 6.85 10.2679 6.75781 10.5 6.75781C10.7321 6.75781 10.9546 6.85 11.1187 7.01409C11.2828 7.17819 11.375 7.40075 11.375 7.63281V10.2578H14C14.2321 10.2578 14.4546 10.35 14.6187 10.5141C14.7828 10.6782 14.875 10.9007 14.875 11.1328C14.875 11.3649 14.7828 11.5874 14.6187 11.7515C14.4546 11.9156 14.2321 12.0078 14 12.0078Z" fill="#5C5C5C"/>
</svg>
