<svg width="25" height="25" viewBox="0 0 25 25" fill="none" xmlns="http://www.w3.org/2000/svg">
<path d="M22.3486 20.2938L17.8329 15.7781C18.9201 14.3308 19.507 12.5691 19.505 10.7589C19.505 6.13517 15.7432 2.37341 11.1195 2.37341C6.49577 2.37341 2.73401 6.13517 2.73401 10.7589C2.73401 15.3826 6.49577 19.1444 11.1195 19.1444C12.9297 19.1464 14.6914 18.5595 16.1387 17.4723L20.6544 21.988C20.883 22.1924 21.1812 22.3014 21.4876 22.2929C21.7941 22.2843 22.0857 22.1587 22.3025 21.9419C22.5193 21.7251 22.6449 21.4335 22.6535 21.127C22.662 20.8206 22.553 20.5224 22.3486 20.2938ZM5.12986 10.7589C5.12986 9.57426 5.48115 8.41623 6.1393 7.43124C6.79745 6.44625 7.7329 5.67854 8.82736 5.2252C9.92182 4.77186 11.1261 4.65324 12.288 4.88436C13.4499 5.11547 14.5171 5.68592 15.3548 6.52359C16.1925 7.36125 16.7629 8.4285 16.994 9.59038C17.2252 10.7523 17.1065 11.9566 16.6532 13.051C16.1999 14.1455 15.4321 15.0809 14.4472 15.7391C13.4622 16.3972 12.3041 16.7485 11.1195 16.7485C9.53153 16.7466 8.00915 16.115 6.88629 14.9921C5.76343 13.8692 5.13177 12.3469 5.12986 10.7589Z" fill="#2D3748"/>
</svg>
