<svg width="20" height="20" viewBox="0 0 20 20" fill="none" xmlns="http://www.w3.org/2000/svg">
<g clip-path="url(#clip0_1_4660)">
<path d="M9.88007 19.7969H2.61005C2.26198 19.8172 1.91353 19.7637 1.58765 19.6397C1.26176 19.5157 0.965846 19.3242 0.719302 19.0776C0.472758 18.8311 0.281193 18.5351 0.157229 18.2093C0.0332655 17.8834 -0.0202935 17.535 6.37504e-05 17.1869V4.55688C-0.0264295 3.9674 0.161576 3.38828 0.5293 2.92679C0.897023 2.4653 1.41955 2.15269 2.00006 2.04688C2.48424 1.98589 2.97214 1.95917 3.46009 1.96689C3.43329 2.29968 3.43329 2.63409 3.46009 2.96689C3.5213 3.4529 3.75874 3.89951 4.12738 4.22208C4.49603 4.54464 4.97025 4.72073 5.46009 4.71689C7.32009 4.71689 9.17003 4.71689 11.03 4.71689C11.3422 4.71517 11.6497 4.64037 11.9279 4.4985C12.206 4.35664 12.447 4.15164 12.6317 3.8999C12.8164 3.64816 12.9395 3.35668 12.9913 3.0488C13.0431 2.74092 13.0222 2.42518 12.9301 2.12686V1.91687C13.4586 1.91762 13.9865 1.95439 14.5101 2.02689C15.0509 2.13775 15.5366 2.4324 15.8848 2.86078C16.2329 3.28916 16.4221 3.82484 16.42 4.37686C16.42 6.49686 16.42 8.61688 16.42 10.7369C16.4048 10.8263 16.3588 10.9077 16.29 10.9669C16.12 11.1169 15.9301 11.2469 15.7701 11.4069C14.1701 12.9969 12.58 14.6069 10.97 16.1969C10.5779 16.5545 10.3262 17.0403 10.2601 17.5669C10.2001 18.0169 10.09 18.4569 10.04 18.9069C9.9644 19.1991 9.91094 19.4966 9.88007 19.7969ZM9.88007 10.3469H12.3201C12.4081 10.3469 12.4952 10.3295 12.5765 10.2959C12.6578 10.2622 12.7316 10.2128 12.7938 10.1506C12.856 10.0884 12.9054 10.0145 12.9391 9.93326C12.9728 9.85197 12.9901 9.76487 12.9901 9.67688C12.9901 9.58889 12.9728 9.50176 12.9391 9.42047C12.9054 9.33918 12.856 9.26534 12.7938 9.20312C12.7316 9.14091 12.6578 9.09153 12.5765 9.05786C12.4952 9.02419 12.4081 9.00687 12.3201 9.00687H7.41004C7.32205 9.00687 7.23498 9.02419 7.15369 9.05786C7.0724 9.09153 6.9985 9.14091 6.93628 9.20312C6.87407 9.26534 6.82475 9.33918 6.79108 9.42047C6.75741 9.50176 6.74005 9.58889 6.74005 9.67688C6.74005 9.76487 6.75741 9.85197 6.79108 9.93326C6.82475 10.0145 6.87407 10.0884 6.93628 10.1506C6.9985 10.2128 7.0724 10.2622 7.15369 10.2959C7.23498 10.3295 7.32205 10.3469 7.41004 10.3469H9.88007ZM9.04004 13.0969H7.43006C7.25236 13.0969 7.08195 13.1675 6.9563 13.2931C6.83065 13.4188 6.76007 13.5892 6.76007 13.7669C6.76007 13.9446 6.83065 14.115 6.9563 14.2406C7.08195 14.3663 7.25236 14.4369 7.43006 14.4369H10.5601C10.6542 14.4456 10.7492 14.434 10.8384 14.4028C10.9277 14.3716 11.0092 14.3216 11.0775 14.2562C11.1458 14.1908 11.1993 14.1114 11.2342 14.0236C11.2691 13.9357 11.2847 13.8413 11.28 13.7469C11.2763 13.6558 11.2542 13.5663 11.2152 13.4839C11.1762 13.4015 11.121 13.3278 11.0529 13.2672C10.9848 13.2065 10.9051 13.1602 10.8187 13.1309C10.7324 13.1017 10.641 13.0901 10.5501 13.0969H9.04004ZM4.31006 10.3469H4.68006C4.8404 10.3385 4.99261 10.2737 5.10974 10.1639C5.22688 10.0541 5.3014 9.90636 5.32007 9.74689C5.34299 9.5826 5.30016 9.41588 5.20093 9.28296C5.1017 9.15003 4.95406 9.0616 4.79004 9.03687C4.45784 8.99806 4.12225 8.99806 3.79004 9.03687C3.62602 9.0616 3.47838 9.15003 3.37915 9.28296C3.27993 9.41588 3.23715 9.5826 3.26007 9.74689C3.27217 9.90807 3.34299 10.0592 3.45911 10.1716C3.57523 10.2841 3.72859 10.35 3.89008 10.3569L4.31006 10.3469ZM4.31006 13.1069H3.89008C3.71504 13.1069 3.54712 13.1764 3.42334 13.3002C3.29957 13.4239 3.23004 13.5918 3.23004 13.7669C3.23004 13.9419 3.29957 14.1098 3.42334 14.2336C3.54712 14.3573 3.71504 14.4269 3.89008 14.4269C4.18641 14.4469 4.4837 14.4469 4.78003 14.4269C4.94456 14.4068 5.09489 14.3236 5.19934 14.1949C5.30379 14.0662 5.35426 13.902 5.34009 13.7369C5.33347 13.577 5.26895 13.4249 5.15857 13.309C5.0482 13.1931 4.89945 13.1213 4.74005 13.1069H4.31006Z" fill="#2684FF"/>
<path d="M8.12998 3.64691H5.55997C5.39235 3.66878 5.22198 3.64352 5.06791 3.57398C4.91383 3.50443 4.78214 3.39337 4.68766 3.2532C4.59317 3.11304 4.53959 2.9493 4.53293 2.7804C4.52627 2.61149 4.56685 2.44408 4.65 2.29691L5.18998 0.95691C5.25149 0.770068 5.37315 0.608868 5.53598 0.498505C5.69882 0.388142 5.89366 0.334818 6.09 0.346894H10.2799C10.4789 0.334908 10.6762 0.38929 10.8409 0.501496C11.0055 0.613702 11.1283 0.777411 11.19 0.966919C11.38 1.43692 11.57 1.90689 11.75 2.37689C11.8197 2.51657 11.851 2.67229 11.8407 2.82806C11.8304 2.98384 11.7788 3.13407 11.6913 3.26334C11.6037 3.3926 11.4834 3.49625 11.3426 3.56366C11.2018 3.63107 11.0456 3.6598 10.89 3.64691H8.12998Z" fill="#2684FF"/>
<path d="M15.07 13.5969L17.17 15.7269L17.06 15.8569L13.6501 19.2569C13.5022 19.3892 13.3233 19.4821 13.13 19.5269C12.63 19.6369 12.13 19.7069 11.63 19.7869C11.5463 19.808 11.4585 19.808 11.3748 19.7867C11.2911 19.7654 11.2139 19.7236 11.1504 19.665C11.0869 19.6065 11.039 19.533 11.011 19.4513C10.983 19.3696 10.9758 19.2821 10.99 19.1969C11.07 18.6169 11.18 18.0369 11.29 17.4669C11.3088 17.3737 11.3581 17.2892 11.43 17.2269L15 13.6569L15.07 13.5969Z" fill="#2684FF"/>
<path d="M18.0101 14.8969L15.9001 12.7569C16.2901 12.3969 16.5901 11.9069 17.1801 11.7569C17.4949 11.6722 17.8287 11.6918 18.1315 11.8125C18.4343 11.9333 18.6899 12.1488 18.8601 12.4269C19.0311 12.7005 19.108 13.0224 19.0791 13.3437C19.0502 13.6651 18.9172 13.9682 18.7001 14.2069C18.4901 14.4469 18.2501 14.6569 18.0101 14.8969Z" fill="#2684FF"/>
</g>
<defs>
<clipPath id="clip0_1_4660">
<rect width="19.09" height="19.47" fill="white" transform="translate(0 0.336914)"/>
</clipPath>
</defs>
</svg>
