<svg width="17" height="21" viewBox="0 0 17 21" fill="none" xmlns="http://www.w3.org/2000/svg">
<g clip-path="url(#clip0_1_4744)">
<path d="M15.7881 4.15379H13.2122C13.0193 3.21596 12.509 2.37332 11.7673 1.76788C11.0255 1.16244 10.0977 0.831231 9.14028 0.830078H7.47862C6.52116 0.831231 5.59337 1.16244 4.85163 1.76788C4.10989 2.37332 3.59956 3.21596 3.40665 4.15379H0.830805C0.613518 4.15849 0.406717 4.24811 0.254709 4.40345C0.102701 4.55878 0.0175781 4.76748 0.0175781 4.98482C0.0175781 5.20215 0.102701 5.41084 0.254709 5.56618C0.406717 5.72152 0.613518 5.81114 0.830805 5.81584H1.66164V16.6182C1.66298 17.7197 2.10116 18.7758 2.88007 19.5547C3.65898 20.3336 4.71502 20.7718 5.81657 20.7731H10.8023C11.9039 20.7718 12.9599 20.3336 13.7388 19.5547C14.5177 18.7758 14.9559 17.7197 14.9573 16.6182V5.81584H15.7881C16.0054 5.81114 16.2122 5.72152 16.3642 5.56618C16.5162 5.41084 16.6013 5.20215 16.6013 4.98482C16.6013 4.76748 16.5162 4.55878 16.3642 4.40345C16.2122 4.24811 16.0054 4.15849 15.7881 4.15379ZM7.47862 14.9565C7.47391 15.1738 7.38429 15.3806 7.22896 15.5326C7.07362 15.6846 6.86493 15.7698 6.64759 15.7698C6.43025 15.7698 6.22156 15.6846 6.06623 15.5326C5.91089 15.3806 5.82127 15.1738 5.81657 14.9565V9.97077C5.81417 9.86013 5.8339 9.75012 5.87458 9.64719C5.91527 9.54427 5.9761 9.45051 6.0535 9.37141C6.13091 9.29231 6.22333 9.22947 6.32535 9.18656C6.42736 9.14366 6.53692 9.12156 6.64759 9.12156C6.75826 9.12156 6.86782 9.14366 6.96984 9.18656C7.07185 9.22947 7.16427 9.29231 7.24168 9.37141C7.31909 9.45051 7.37992 9.54427 7.4206 9.64719C7.46129 9.75012 7.48101 9.86013 7.47862 9.97077V14.9565ZM10.8023 14.9565C10.7976 15.1738 10.708 15.3806 10.5527 15.5326C10.3973 15.6846 10.1886 15.7698 9.9713 15.7698C9.75396 15.7698 9.54527 15.6846 9.38994 15.5326C9.2346 15.3806 9.14498 15.1738 9.14028 14.9565V9.97077C9.13788 9.86013 9.15761 9.75012 9.19829 9.64719C9.23898 9.54427 9.29981 9.45051 9.37721 9.37141C9.45462 9.29231 9.54704 9.22947 9.64906 9.18656C9.75107 9.14366 9.86063 9.12156 9.9713 9.12156C10.082 9.12156 10.1915 9.14366 10.2935 9.18656C10.3956 9.22947 10.488 9.29231 10.5654 9.37141C10.6428 9.45051 10.7036 9.54427 10.7443 9.64719C10.785 9.75012 10.8047 9.86013 10.8023 9.97077V14.9565ZM5.12791 4.15379C5.30035 3.66809 5.61886 3.24765 6.03973 2.95014C6.4606 2.65264 6.96321 2.49265 7.47862 2.49213H9.14028C9.65572 2.49269 10.1584 2.65268 10.5793 2.95017C11.0002 3.24767 11.3188 3.66809 11.4914 4.15379H5.12791Z" fill="#F43D3D"/>
</g>
<defs>
<clipPath id="clip0_1_4744">
<rect width="16.6193" height="19.943" fill="white" transform="translate(0 0.830078)"/>
</clipPath>
</defs>
</svg>
